# xmcd
#
# Track frame offsets:
#	150
#	15834
#	28345
#	42129
#	56160
#	69776
#	86011
#	99696
#	115360
#	129751
#	143059
#	157258
#	170508
#	185699
#	200317
#	213911
#	228654
#	238257
#	255723
#	270551
#	284467
#
# Disc length: 3966 seconds
#
# Revision: 1
# Processed by: cddbd v1.5.2PL0 Copyright (c) Steve Scherf et al.
# Submitted via: audiograbber 1.83.01
#
DISCID=310f7c15
DTITLE=versch - Gute Wahl Hit Frühling 2 CD 1
DYEAR=2002
DGENRE=Schlager
TTITLE0=Hertel, Stefanie - Wolkenlos
TTITLE1=Bartolo, Claudio de - So wie einst in Pastorella
TTITLE2=Kathrin and Peter - Total romantisch
TTITLE3=Emmerlich, Gunter - Die Glocken des Lebens
TTITLE4=Ladiner, Die - Allein in Einsamkeit
TTITLE5=King, Ricky - Concerto D'Amore
TTITLE6=Olivier, Géraldine - Es geht nichts über die Liebe
TTITLE7=Tol and Tol - Florence
TTITLE8=Becker, Axel - Vertrau mir
TTITLE9=Astrid and Breck, Freddy - Ein ganzes Leben lang
TTITLE10=Granata, Rocco - Lass uns tanzen
TTITLE11=Mross, Stefan - Angeli delle Montagne
TTITLE12=Angelina and Wolff, Andy - Wenn Liebe diese Welt regiert
TTITLE13=Hertel, Eberhard - Oh wie schön, dass ich Dich habe
TTITLE14=Bianca - Ich glaube an die Zukunft der Liebe
TTITLE15=Siegel, Sebastian - Ich hab mich neu verliebt
TTITLE16=Kröll, Willi and die Zillertaler Gipfelstürmer - Nimm Dir Zeit für Fröhl
TTITLE16=ichkeit
TTITLE17=Jung, Robert - Lago Di Garda, Amore Mio
TTITLE18=Burck, Anita - Mit jedem Tag
TTITLE19=Speelwark - Wedder na Huus
TTITLE20=Orig. Südtiroler Spitzbuam - Heimat im Herzen
EXTD=
EXTT0=
EXTT1=
EXTT2=
EXTT3=
EXTT4=
EXTT5=
EXTT6=
EXTT7=
EXTT8=
EXTT9=
EXTT10=
EXTT11=
EXTT12=
EXTT13=
EXTT14=
EXTT15=
EXTT16=
EXTT17=
EXTT18=
EXTT19=
EXTT20=
PLAYORDER=
